<?xml version="1.0" standalone="no"?>
<!DOCTYPE svg PUBLIC "-//W3C//DTD SVG 20010904//EN"
 "http://www.w3.org/TR/2001/REC-SVG-20010904/DTD/svg10.dtd">
<svg version="1.0" xmlns="http://www.w3.org/2000/svg"
 width="400.000000pt" height="400.000000pt" viewBox="0 0 400.000000 400.000000"
 preserveAspectRatio="xMidYMid meet">

<g transform="translate(0.000000,400.000000) scale(0.100000,-0.100000)"
fill="#000000" stroke="none">
<path d="M1335 3600 c-357 -8 -426 -18 -551 -80 -149 -73 -287 -227 -339 -377
-48 -138 -50 -186 -50 -1148 0 -923 2 -988 40 -1118 51 -176 220 -357 397
-428 128 -51 141 -52 1078 -56 891 -5 1061 0 1186 33 129 33 253 115 347 229
105 127 141 235 158 474 14 203 6 1777 -10 1871 -28 165 -95 295 -208 401
-103 99 -196 148 -328 176 -130 27 -988 38 -1720 23z m1209 -1099 c105 -51
157 -135 164 -266 8 -146 -14 -199 -202 -502 l-107 -173 -85 0 c-46 0 -84 3
-84 7 0 3 61 102 135 219 74 116 135 215 135 218 0 4 -17 -7 -38 -24 -88 -70
-222 -60 -306 24 -72 72 -102 197 -71 302 30 107 88 170 188 206 74 26 204 21
271 -11z m-785 -242 c66 -33 109 -81 133 -147 9 -24 13 -90 13 -192 0 -141 -2
-160 -24 -208 -27 -59 -75 -106 -139 -134 -52 -23 -182 -28 -248 -10 -59 17
-118 64 -151 119 -27 47 -28 53 -31 212 -4 193 4 232 61 298 61 69 121 93 233
93 82 0 97 -3 153 -31z"/>
<path d="M2337 2386 c-49 -18 -64 -32 -88 -77 -26 -52 -25 -123 4 -173 63
-112 231 -108 286 8 27 55 27 111 -1 166 -37 72 -123 105 -201 76z"/>
<path d="M1553 2149 c-17 -5 -43 -23 -57 -40 -25 -30 -26 -34 -26 -183 0 -140
2 -156 21 -180 61 -77 186 -74 234 7 17 28 20 51 20 172 0 151 -7 176 -58 209
-30 20 -95 27 -134 15z"/>
</g>
</svg>
